<svg xmlns="http://www.w3.org/2000/svg" xmlns:xlink="http://www.w3.org/1999/xlink" version="1.1" width="1000" height="1000" viewBox="0 0 1000 1000" xml:space="preserve">
<desc>Created with Fabric.js 3.5.0</desc>
<defs>
</defs>
<rect x="0" y="0" width="100%" height="100%" fill="rgba(255,255,255,0)"/>
<g transform="matrix(3.0303 0 0 3.0303 499.9995 499.9997)" id="707019">
<g style="" vector-effect="non-scaling-stroke">
		<g transform="matrix(1 0 0 1 -95.68 61.495)">
<path style="stroke: none; stroke-width: 1; stroke-dasharray: none; stroke-linecap: butt; stroke-dashoffset: 0; stroke-linejoin: miter; stroke-miterlimit: 4; is-custom-font: none; font-file-url: none; fill: rgb(23,25,35); fill-rule: nonzero; opacity: 1;" transform=" translate(-54.32, -177.61)" d="M 61.93 169.21 v 5.57 h -0.46 c -0.35 -1.45 -1 -2.57 -1.94 -3.34 c -0.95 -0.77 -2.02 -1.16 -3.22 -1.16 c -1 0 -1.92 0.29 -2.76 0.86 c -0.84 0.58 -1.45 1.33 -1.84 2.26 c -0.5 1.19 -0.75 2.52 -0.75 3.98 c 0 1.44 0.18 2.75 0.55 3.93 c 0.36 1.18 0.93 2.07 1.71 2.68 c 0.77 0.6 1.78 0.91 3.01 0.91 c 1.01 0 1.94 -0.22 2.78 -0.66 c 0.84 -0.44 1.73 -1.2 2.66 -2.29 v 1.39 c -0.9 0.94 -1.84 1.62 -2.81 2.04 c -0.98 0.42 -2.12 0.63 -3.42 0.63 c -1.71 0 -3.24 -0.34 -4.57 -1.03 c -1.33 -0.69 -2.36 -1.67 -3.08 -2.96 c -0.72 -1.29 -1.08 -2.66 -1.08 -4.11 c 0 -1.53 0.4 -2.99 1.2 -4.36 c 0.8 -1.37 1.88 -2.44 3.25 -3.2 c 1.36 -0.76 2.81 -1.14 4.34 -1.14 c 1.13 0 2.32 0.25 3.58 0.73 c 0.73 0.28 1.19 0.43 1.39 0.43 c 0.25 0 0.47 -0.09 0.66 -0.28 c 0.19 -0.19 0.31 -0.48 0.36 -0.88 H 61.93 z" stroke-linecap="round"/>
</g>
		<g transform="matrix(1 0 0 1 -77.915 61.69)">
<path style="stroke: none; stroke-width: 1; stroke-dasharray: none; stroke-linecap: butt; stroke-dashoffset: 0; stroke-linejoin: miter; stroke-miterlimit: 4; is-custom-font: none; font-file-url: none; fill: rgb(23,25,35); fill-rule: nonzero; opacity: 1;" transform=" translate(-72.085, -177.805)" d="M 63.82 169.58 h 8.29 v 0.44 H 71.7 c -0.62 0 -1.05 0.07 -1.29 0.2 c -0.23 0.13 -0.4 0.31 -0.5 0.54 c -0.1 0.23 -0.15 0.8 -0.15 1.72 v 7.87 c 0 1.44 0.11 2.39 0.33 2.86 c 0.22 0.47 0.57 0.85 1.07 1.16 c 0.5 0.31 1.13 0.46 1.88 0.46 c 0.87 0 1.61 -0.2 2.22 -0.59 c 0.61 -0.39 1.07 -0.93 1.37 -1.62 c 0.3 -0.69 0.46 -1.88 0.46 -3.59 v -6.55 c 0 -0.72 -0.08 -1.23 -0.23 -1.54 c -0.15 -0.31 -0.34 -0.52 -0.57 -0.64 c -0.36 -0.18 -0.86 -0.27 -1.5 -0.27 v -0.44 h 5.56 v 0.44 h -0.33 c -0.45 0 -0.83 0.09 -1.13 0.27 c -0.3 0.18 -0.52 0.45 -0.65 0.82 c -0.1 0.25 -0.15 0.71 -0.15 1.36 v 6.1 c 0 1.89 -0.12 3.25 -0.37 4.09 c -0.25 0.84 -0.86 1.61 -1.82 2.31 c -0.96 0.7 -2.28 1.05 -3.95 1.05 c -1.39 0 -2.46 -0.19 -3.22 -0.56 c -1.04 -0.51 -1.77 -1.15 -2.19 -1.94 c -0.43 -0.79 -0.64 -1.85 -0.64 -3.19 v -7.87 c 0 -0.92 -0.05 -1.5 -0.15 -1.72 c -0.1 -0.22 -0.28 -0.4 -0.53 -0.54 c -0.25 -0.13 -0.72 -0.2 -1.4 -0.19 V 169.58 z" stroke-linecap="round"/>
</g>
		<g transform="matrix(1 0 0 1 -61.335 61.5)">
<path style="stroke: none; stroke-width: 1; stroke-dasharray: none; stroke-linecap: butt; stroke-dashoffset: 0; stroke-linejoin: miter; stroke-miterlimit: 4; is-custom-font: none; font-file-url: none; fill: rgb(23,25,35); fill-rule: nonzero; opacity: 1;" transform=" translate(-88.665, -177.615)" d="M 96.1 180.01 l -0.6 5.64 H 81.23 v -0.44 h 0.53 c 0.47 0 0.84 -0.08 1.13 -0.25 c 0.21 -0.11 0.36 -0.3 0.47 -0.57 c 0.09 -0.19 0.13 -0.69 0.13 -1.49 v -10.57 c 0 -0.82 -0.04 -1.33 -0.13 -1.54 c -0.09 -0.2 -0.26 -0.39 -0.53 -0.54 c -0.26 -0.15 -0.62 -0.23 -1.07 -0.23 h -0.53 v -0.44 h 8.57 v 0.44 h -0.7 c -0.47 0 -0.84 0.08 -1.13 0.25 c -0.21 0.11 -0.37 0.3 -0.49 0.57 c -0.09 0.19 -0.13 0.69 -0.13 1.49 v 10.24 c 0 0.82 0.05 1.34 0.14 1.57 c 0.1 0.22 0.28 0.39 0.56 0.5 c 0.2 0.07 0.68 0.11 1.43 0.11 h 1.34 c 0.85 0 1.56 -0.15 2.13 -0.45 c 0.57 -0.3 1.06 -0.77 1.48 -1.42 c 0.41 -0.65 0.81 -1.6 1.18 -2.87 H 96.1 z" stroke-linecap="round"/>
</g>
		<g transform="matrix(1 0 0 1 -47.17 61.5)">
<path style="stroke: none; stroke-width: 1; stroke-dasharray: none; stroke-linecap: butt; stroke-dashoffset: 0; stroke-linejoin: miter; stroke-miterlimit: 4; is-custom-font: none; font-file-url: none; fill: rgb(23,25,35); fill-rule: nonzero; opacity: 1;" transform=" translate(-102.83, -177.615)" d="M 110.05 169.58 v 4.35 h -0.43 c -0.25 -1 -0.53 -1.72 -0.84 -2.16 c -0.31 -0.44 -0.73 -0.79 -1.27 -1.05 c -0.3 -0.14 -0.83 -0.21 -1.58 -0.21 h -1.2 v 12.39 c 0 0.82 0.05 1.34 0.14 1.54 c 0.09 0.21 0.27 0.39 0.53 0.54 c 0.26 0.15 0.63 0.23 1.08 0.23 h 0.53 v 0.44 h -8.41 v -0.44 h 0.53 c 0.47 0 0.84 -0.08 1.13 -0.25 c 0.21 -0.11 0.37 -0.3 0.49 -0.57 c 0.09 -0.19 0.13 -0.69 0.13 -1.49 v -12.39 h -1.16 c -1.08 0 -1.87 0.23 -2.36 0.69 c -0.69 0.64 -1.12 1.55 -1.3 2.74 h -0.45 v -4.35 H 110.05 z" stroke-linecap="round"/>
</g>
		<g transform="matrix(1 0 0 1 -30.235 61.69)">
<path style="stroke: none; stroke-width: 1; stroke-dasharray: none; stroke-linecap: butt; stroke-dashoffset: 0; stroke-linejoin: miter; stroke-miterlimit: 4; is-custom-font: none; font-file-url: none; fill: rgb(23,25,35); fill-rule: nonzero; opacity: 1;" transform=" translate(-119.765, -177.805)" d="M 111.5 169.58 h 8.29 v 0.44 h -0.41 c -0.62 0 -1.05 0.07 -1.29 0.2 c -0.23 0.13 -0.4 0.31 -0.5 0.54 c -0.1 0.23 -0.15 0.8 -0.15 1.72 v 7.87 c 0 1.44 0.11 2.39 0.33 2.86 c 0.22 0.47 0.57 0.85 1.07 1.16 c 0.5 0.31 1.13 0.46 1.88 0.46 c 0.87 0 1.61 -0.2 2.22 -0.59 c 0.61 -0.39 1.07 -0.93 1.37 -1.62 c 0.3 -0.69 0.46 -1.88 0.46 -3.59 v -6.55 c 0 -0.72 -0.08 -1.23 -0.23 -1.54 c -0.15 -0.31 -0.34 -0.52 -0.57 -0.64 c -0.36 -0.18 -0.86 -0.27 -1.5 -0.27 v -0.44 h 5.56 v 0.44 h -0.33 c -0.45 0 -0.83 0.09 -1.13 0.27 c -0.3 0.18 -0.52 0.45 -0.65 0.82 c -0.1 0.25 -0.15 0.71 -0.15 1.36 v 6.1 c 0 1.89 -0.12 3.25 -0.37 4.09 c -0.25 0.84 -0.86 1.61 -1.82 2.31 c -0.96 0.7 -2.28 1.05 -3.95 1.05 c -1.39 0 -2.46 -0.19 -3.22 -0.56 c -1.04 -0.51 -1.77 -1.15 -2.19 -1.94 c -0.43 -0.79 -0.64 -1.85 -0.64 -3.19 v -7.87 c 0 -0.92 -0.05 -1.5 -0.15 -1.72 c -0.1 -0.22 -0.28 -0.4 -0.53 -0.54 c -0.25 -0.13 -0.72 -0.2 -1.4 -0.19 V 169.58 z" stroke-linecap="round"/>
</g>
		<g transform="matrix(1 0 0 1 -12.45 61.5)">
<path style="stroke: none; stroke-width: 1; stroke-dasharray: none; stroke-linecap: butt; stroke-dashoffset: 0; stroke-linejoin: miter; stroke-miterlimit: 4; is-custom-font: none; font-file-url: none; fill: rgb(23,25,35); fill-rule: nonzero; opacity: 1;" transform=" translate(-137.55, -177.615)" d="M 134.9 178.33 v 4.5 c 0 0.87 0.05 1.42 0.16 1.64 c 0.11 0.23 0.29 0.4 0.56 0.54 c 0.27 0.13 0.77 0.2 1.5 0.2 v 0.44 h -8.22 v -0.44 c 0.74 0 1.25 -0.07 1.51 -0.21 c 0.26 -0.14 0.45 -0.32 0.56 -0.54 c 0.11 -0.22 0.16 -0.77 0.16 -1.64 V 172.4 c 0 -0.87 -0.05 -1.42 -0.16 -1.64 c -0.11 -0.22 -0.29 -0.4 -0.56 -0.54 c -0.27 -0.13 -0.77 -0.2 -1.5 -0.2 v -0.44 h 7.47 c 1.94 0 3.37 0.13 4.27 0.4 c 0.9 0.27 1.64 0.76 2.2 1.49 c 0.57 0.72 0.85 1.57 0.85 2.54 c 0 1.19 -0.43 2.17 -1.28 2.94 c -0.55 0.49 -1.31 0.86 -2.29 1.1 l 3.86 5.44 c 0.51 0.7 0.87 1.14 1.08 1.32 c 0.32 0.24 0.7 0.38 1.13 0.4 v 0.44 h -5.06 l -5.18 -7.32 H 134.9 z M 134.9 170.45 v 7.04 h 0.68 c 1.1 0 1.92 -0.1 2.46 -0.3 c 0.55 -0.2 0.97 -0.56 1.29 -1.09 c 0.31 -0.53 0.47 -1.21 0.47 -2.06 c 0 -1.22 -0.29 -2.13 -0.86 -2.71 c -0.57 -0.58 -1.5 -0.88 -2.77 -0.88 H 134.9 z" stroke-linecap="round"/>
</g>
		<g transform="matrix(1 0 0 1 4.7 61.34)">
<path style="stroke: none; stroke-width: 1; stroke-dasharray: none; stroke-linecap: butt; stroke-dashoffset: 0; stroke-linejoin: miter; stroke-miterlimit: 4; is-custom-font: none; font-file-url: none; fill: rgb(23,25,35); fill-rule: nonzero; opacity: 1;" transform=" translate(-154.7, -177.455)" d="M 156.07 181.08 h -5.68 l -0.68 1.56 c -0.22 0.52 -0.33 0.95 -0.33 1.29 c 0 0.45 0.18 0.78 0.55 1 c 0.21 0.13 0.74 0.22 1.58 0.28 v 0.44 h -5.34 v -0.44 c 0.58 -0.09 1.05 -0.33 1.42 -0.72 s 0.83 -1.2 1.37 -2.42 l 5.75 -12.82 h 0.23 l 5.79 13.18 c 0.55 1.25 1.01 2.03 1.36 2.36 c 0.27 0.25 0.65 0.39 1.14 0.43 v 0.44 h -7.77 v -0.44 h 0.32 c 0.62 0 1.06 -0.09 1.32 -0.26 c 0.17 -0.13 0.26 -0.31 0.26 -0.55 c 0 -0.14 -0.02 -0.29 -0.07 -0.44 c -0.02 -0.07 -0.13 -0.37 -0.36 -0.89 L 156.07 181.08 z M 155.67 180.2 l -2.39 -5.53 l -2.46 5.53 H 155.67 z" stroke-linecap="round"/>
</g>
		<g transform="matrix(1 0 0 1 21.395 61.5)">
<path style="stroke: none; stroke-width: 1; stroke-dasharray: none; stroke-linecap: butt; stroke-dashoffset: 0; stroke-linejoin: miter; stroke-miterlimit: 4; is-custom-font: none; font-file-url: none; fill: rgb(23,25,35); fill-rule: nonzero; opacity: 1;" transform=" translate(-171.395, -177.615)" d="M 178.83 180.01 l -0.6 5.64 h -14.27 v -0.44 h 0.53 c 0.47 0 0.84 -0.08 1.13 -0.25 c 0.21 -0.11 0.36 -0.3 0.47 -0.57 c 0.09 -0.19 0.13 -0.69 0.13 -1.49 v -10.57 c 0 -0.82 -0.04 -1.33 -0.13 -1.54 c -0.09 -0.2 -0.26 -0.39 -0.53 -0.54 c -0.26 -0.15 -0.62 -0.23 -1.07 -0.23 h -0.53 v -0.44 h 8.57 v 0.44 h -0.7 c -0.47 0 -0.84 0.08 -1.13 0.25 c -0.21 0.11 -0.37 0.3 -0.49 0.57 c -0.09 0.19 -0.13 0.69 -0.13 1.49 v 10.24 c 0 0.82 0.05 1.34 0.14 1.57 c 0.1 0.22 0.28 0.39 0.56 0.5 c 0.2 0.07 0.68 0.11 1.43 0.11 h 1.34 c 0.85 0 1.56 -0.15 2.13 -0.45 c 0.57 -0.3 1.06 -0.77 1.48 -1.42 c 0.41 -0.65 0.81 -1.6 1.18 -2.87 H 178.83 z" stroke-linecap="round"/>
</g>
		<g transform="matrix(1 0 0 1 41.78 61.5)">
<path style="stroke: none; stroke-width: 1; stroke-dasharray: none; stroke-linecap: butt; stroke-dashoffset: 0; stroke-linejoin: miter; stroke-miterlimit: 4; is-custom-font: none; font-file-url: none; fill: rgb(23,25,35); fill-rule: nonzero; opacity: 1;" transform=" translate(-191.78, -177.615)" d="M 190.97 178.37 v 4.46 c 0 0.87 0.05 1.42 0.16 1.64 c 0.11 0.23 0.3 0.4 0.57 0.54 c 0.27 0.13 0.77 0.2 1.5 0.2 v 0.44 h -8.16 v -0.44 c 0.74 0 1.25 -0.07 1.51 -0.21 c 0.26 -0.14 0.45 -0.32 0.56 -0.54 c 0.11 -0.22 0.16 -0.77 0.16 -1.64 V 172.4 c 0 -0.87 -0.05 -1.42 -0.16 -1.64 c -0.11 -0.22 -0.29 -0.4 -0.56 -0.54 s -0.77 -0.2 -1.5 -0.2 v -0.44 h 7 c 2.31 0 3.96 0.41 4.97 1.23 c 1 0.82 1.5 1.85 1.5 3.08 c 0 1.04 -0.32 1.94 -0.97 2.68 c -0.65 0.74 -1.54 1.25 -2.68 1.52 C 194.09 178.28 192.8 178.37 190.97 178.37 z M 190.97 170.51 v 6.94 c 0.26 0.02 0.46 0.02 0.59 0.02 c 0.96 0 1.71 -0.29 2.23 -0.86 s 0.78 -1.46 0.78 -2.66 c 0 -1.19 -0.26 -2.07 -0.78 -2.62 s -1.3 -0.83 -2.33 -0.83 H 190.97 z" stroke-linecap="round"/>
</g>
		<g transform="matrix(1 0 0 1 56.17 61.34)">
<path style="stroke: none; stroke-width: 1; stroke-dasharray: none; stroke-linecap: butt; stroke-dashoffset: 0; stroke-linejoin: miter; stroke-miterlimit: 4; is-custom-font: none; font-file-url: none; fill: rgb(23,25,35); fill-rule: nonzero; opacity: 1;" transform=" translate(-206.17, -177.455)" d="M 207.54 181.08 h -5.68 l -0.68 1.56 c -0.22 0.52 -0.33 0.95 -0.33 1.29 c 0 0.45 0.18 0.78 0.55 1 c 0.21 0.13 0.74 0.22 1.58 0.28 v 0.44 h -5.34 v -0.44 c 0.58 -0.09 1.05 -0.33 1.42 -0.72 c 0.37 -0.39 0.83 -1.2 1.37 -2.42 l 5.75 -12.82 h 0.23 l 5.79 13.18 c 0.55 1.25 1.01 2.03 1.36 2.36 c 0.27 0.25 0.65 0.39 1.14 0.43 v 0.44 h -7.77 v -0.44 h 0.32 c 0.62 0 1.06 -0.09 1.32 -0.26 c 0.17 -0.13 0.26 -0.31 0.26 -0.55 c 0 -0.14 -0.02 -0.29 -0.07 -0.44 c -0.02 -0.07 -0.13 -0.37 -0.36 -0.89 L 207.54 181.08 z M 207.14 180.2 l -2.39 -5.53 l -2.46 5.53 H 207.14 z" stroke-linecap="round"/>
</g>
		<g transform="matrix(1 0 0 1 74.07 61.5)">
<path style="stroke: none; stroke-width: 1; stroke-dasharray: none; stroke-linecap: butt; stroke-dashoffset: 0; stroke-linejoin: miter; stroke-miterlimit: 4; is-custom-font: none; font-file-url: none; fill: rgb(23,25,35); fill-rule: nonzero; opacity: 1;" transform=" translate(-224.07, -177.615)" d="M 221.42 178.33 v 4.5 c 0 0.87 0.05 1.42 0.16 1.64 c 0.11 0.23 0.29 0.4 0.56 0.54 c 0.27 0.13 0.77 0.2 1.5 0.2 v 0.44 h -8.22 v -0.44 c 0.74 0 1.25 -0.07 1.51 -0.21 c 0.26 -0.14 0.45 -0.32 0.56 -0.54 c 0.11 -0.22 0.16 -0.77 0.16 -1.64 V 172.4 c 0 -0.87 -0.05 -1.42 -0.16 -1.64 c -0.11 -0.22 -0.29 -0.4 -0.56 -0.54 s -0.77 -0.2 -1.5 -0.2 v -0.44 h 7.47 c 1.94 0 3.37 0.13 4.27 0.4 c 0.9 0.27 1.64 0.76 2.2 1.49 c 0.57 0.72 0.85 1.57 0.85 2.54 c 0 1.19 -0.43 2.17 -1.28 2.94 c -0.55 0.49 -1.31 0.86 -2.29 1.1 l 3.86 5.44 c 0.51 0.7 0.87 1.14 1.08 1.32 c 0.32 0.24 0.7 0.38 1.13 0.4 v 0.44 h -5.06 l -5.18 -7.32 H 221.42 z M 221.42 170.45 v 7.04 h 0.68 c 1.1 0 1.92 -0.1 2.46 -0.3 c 0.55 -0.2 0.97 -0.56 1.29 -1.09 c 0.31 -0.53 0.47 -1.21 0.47 -2.06 c 0 -1.22 -0.29 -2.13 -0.86 -2.71 c -0.57 -0.58 -1.49 -0.88 -2.77 -0.88 H 221.42 z" stroke-linecap="round"/>
</g>
		<g transform="matrix(1 0 0 1 92.33 61.51)">
<path style="stroke: none; stroke-width: 1; stroke-dasharray: none; stroke-linecap: butt; stroke-dashoffset: 0; stroke-linejoin: miter; stroke-miterlimit: 4; is-custom-font: none; font-file-url: none; fill: rgb(23,25,35); fill-rule: nonzero; opacity: 1;" transform=" translate(-242.33, -177.625)" d="M 242.6 175.73 l 5.65 7.08 c 0.8 1 1.49 1.67 2.06 2.03 c 0.42 0.25 0.86 0.38 1.33 0.38 v 0.44 h -8.37 v -0.44 c 0.53 -0.05 0.87 -0.13 1.02 -0.25 c 0.15 -0.12 0.23 -0.26 0.23 -0.44 c 0 -0.33 -0.36 -0.96 -1.09 -1.87 l -3.69 -4.63 l -0.59 0.5 v 4.38 c 0 0.84 0.05 1.36 0.14 1.56 c 0.09 0.21 0.28 0.38 0.55 0.53 c 0.27 0.15 0.7 0.22 1.29 0.22 v 0.44 h -8.11 v -0.44 h 0.53 c 0.47 0 0.84 -0.08 1.13 -0.25 c 0.21 -0.11 0.36 -0.3 0.47 -0.57 c 0.09 -0.19 0.13 -0.69 0.13 -1.49 v -10.57 c 0 -0.82 -0.04 -1.33 -0.13 -1.54 c -0.09 -0.2 -0.26 -0.39 -0.53 -0.54 c -0.26 -0.15 -0.62 -0.23 -1.07 -0.23 h -0.53 v -0.44 h 8 v 0.44 c -0.55 0 -0.96 0.08 -1.24 0.24 c -0.21 0.11 -0.37 0.3 -0.49 0.56 c -0.1 0.2 -0.14 0.7 -0.14 1.52 v 5 l 5.96 -4.82 c 0.83 -0.67 1.24 -1.21 1.24 -1.61 c 0 -0.3 -0.17 -0.54 -0.51 -0.71 c -0.17 -0.09 -0.6 -0.14 -1.29 -0.17 v -0.44 h 6.27 v 0.44 c -0.56 0.04 -1 0.14 -1.32 0.3 c -0.32 0.16 -1.06 0.71 -2.21 1.64 L 242.6 175.73 z" stroke-linecap="round"/>
</g>
		<g transform="matrix(1 0 0 1 -0.0234 -27.3194)">
<path style="stroke: none; stroke-width: 1; stroke-dasharray: none; stroke-linecap: butt; stroke-dashoffset: 0; stroke-linejoin: miter; stroke-miterlimit: 4; is-custom-font: none; font-file-url: none; fill: rgb(23,25,35); fill-rule: nonzero; opacity: 1;" transform=" translate(-149.9767, -88.7956)" d="M 134.6 16.22 c -1.43 1.9 -2.81 3.85 -4.3 5.7 c -16.56 20.44 -13.84 42.25 -4.51 64.45 c 1.92 4.56 4.48 8.86 7.2 14.17 c 3.02 -7.39 5.69 -13.9 8.43 -20.61 c -1.47 -1.06 -2.89 -2.07 -5.07 -3.64 c 7.7 0 14.5 0 21.3 0 c -5.49 2.29 -6.28 7.6 -8.32 11.98 c -2.59 5.58 -5.09 11.21 -7.43 16.89 c -0.59 1.43 -1.16 3.62 -0.49 4.69 c 3.71 6.03 7.81 11.83 12.34 18.56 c 2.37 -5.46 4.46 -10 6.31 -14.63 c 3.26 -8.17 6.57 -16.33 9.48 -24.63 c 2.64 -7.53 1.51 -9.32 -5.95 -11.43 c -0.61 -0.17 -1.19 -0.45 -1.68 -1.37 c 18.4 0 36.8 0 55.2 0 c -7.43 2.95 -6.31 9.24 -6.34 15.02 c -0.02 4.87 0 9.75 0 15.59 c 2.22 -1.28 3.81 -1.99 5.15 -3.01 c 7.24 -5.55 14.42 -11.17 21.61 -16.78 c 0.77 -0.6 1.52 -1.26 2.16 -1.99 c 2.54 -2.91 1.89 -5.35 -1.74 -6.72 c -1.48 -0.56 -2.97 -1.11 -4.27 -2.31 c 12.1 0 24.19 0 36.32 0 c -0.07 0.5 -0.06 0.95 -0.14 0.97 c -11.76 2.6 -18.77 12.32 -28.01 18.68 c -5.64 3.88 -10.87 8.34 -16.04 12.34 c 11.29 11.34 22.08 22.67 33.42 33.41 c 10.19 9.64 24.85 10.96 35.7 2.23 c 0.75 -0.6 1.7 -0.93 2.56 -1.39 c -2.48 2.78 -4.58 6.04 -7.49 8.26 c -20.58 15.71 -42.05 12.91 -59.02 -8.71 c -5.1 -6.51 -9.87 -13.28 -14.83 -19.89 c -1.32 -1.77 -2.81 -3.41 -4.9 -5.92 c -0.21 2.42 -0.44 3.87 -0.45 5.32 c -0.07 8.14 -0.02 16.28 -0.13 24.42 c -0.12 8.76 -0.16 8.78 6.65 14.62 c -10.59 0 -20.74 0 -31.9 0 c 1.43 -0.99 1.93 -1.62 2.51 -1.7 c 4.2 -0.56 4.97 -3.33 4.96 -6.95 c -0.06 -18.66 -0.02 -37.33 -0.03 -55.99 c 0 -4.07 0.17 -8.15 -0.13 -12.2 c -0.11 -1.46 -1.35 -2.84 -2.07 -4.26 c -1.3 0.89 -3.21 1.48 -3.8 2.71 c -5.18 10.82 -10.48 21.61 -15.05 32.7 c -4.94 12 -9.08 24.32 -13.68 36.46 c -1.06 2.8 -2.58 5.43 -4.49 8.12 c -2.48 -13.93 -6.73 -26.71 -17.61 -37.25 c -1.27 2.71 -2.3 4.64 -3.09 6.65 c -3.63 9.22 -7.15 18.49 -10.84 27.69 c -0.62 1.54 -1.91 2.81 -3.51 3.94 c 1.64 -9.39 -1.24 -17.38 -5.83 -24.93 c -3.2 -5.26 -6.49 -10.48 -9.98 -15.56 c -0.8 -1.16 -2.8 -2.53 -3.84 -2.26 c -1.8 0.48 -3.71 1.88 -4.75 3.44 c -0.91 1.37 -0.9 3.48 -0.93 5.27 c -0.1 6.17 0.09 12.35 -0.08 18.52 c -0.13 4.9 0.17 9.42 6.04 11.4 c -13.75 6.62 -22.18 6.22 -24.23 -10.02 c -0.51 0.98 -0.9 2.04 -1.55 2.92 c -9.93 13.32 -30.22 14.91 -42.85 8.66 c -12.11 -5.99 -21.77 -14.71 -26.12 -27.72 c -5.05 -15.06 -0.2 -28.28 10.42 -39.25 c 9.9 -10.23 22.38 -15.23 36.75 -14.78 c 3.13 0.1 6.24 1.07 10.61 1.87 c -2.3 -3.53 -4.02 -6.15 -5.73 -8.78 c -3.48 -5.37 -3.13 -7.42 2.06 -11.16 c 1.91 -1.38 4.01 -2.51 6.59 -4.11 C 61.5 72.15 73.92 83.46 82.35 97.7 c -3.18 -2.2 -5.49 -3.75 -7.75 -5.37 c -14.61 -10.45 -33.75 -6.68 -42.53 8.83 c -10.14 17.91 3.19 42.21 22.43 43.64 c 7.38 0.55 13.56 -3.01 19.29 -7.23 c 0.69 -0.51 1.27 -1.64 1.29 -2.5 c 0.12 -4.74 0.06 -9.48 0.06 -14.11 c -7.5 -1.81 -15.82 -0.78 -24.22 3.09 c 2.2 -4.06 3.95 -7.62 6.07 -10.95 c 0.52 -0.81 2.27 -1.22 3.43 -1.19 c 12.07 0.37 24.14 0.86 37.09 1.35 c -1.14 -2.15 -1.82 -3.73 -2.75 -5.15 c -6.82 -10.44 -13.94 -20.7 -20.46 -31.33 c -4.5 -7.33 -8.26 -15.38 -5.38 -24.2 c 1.26 -3.84 4.06 -7.67 7.18 -10.32 c 5.36 -4.56 11.98 -7.04 18.89 -8.24 c -2.3 4.44 -5.29 8.6 -6.67 13.24 c -2.6 8.8 -0.3 17.48 2.55 25.91 c 4.62 13.65 21.02 42.9 31.1 55.45 c 2.04 -5.51 4.14 -10.58 5.67 -15.82 c 0.32 -1.11 -1.19 -3 -2.24 -4.22 c -5.85 -6.82 -12.25 -13.21 -17.6 -20.39 c -4.74 -6.36 -9.04 -13.24 -12.33 -20.44 c -7.53 -16.47 -2.55 -31.38 13.24 -40.55 c 5.77 -3.35 12.15 -5.64 18.24 -8.44 c 1.73 -0.8 3.41 -1.69 5.12 -2.54 C 132.92 16.22 133.76 16.22 134.6 16.22 z" stroke-linecap="round"/>
</g>
		<g transform="matrix(1 0 0 1 -16.9496 92.33)">
<path style="stroke: none; stroke-width: 1; stroke-dasharray: none; stroke-linecap: butt; stroke-dashoffset: 0; stroke-linejoin: miter; stroke-miterlimit: 4; is-custom-font: none; font-file-url: none; fill: rgb(23,25,35); fill-rule: evenodd; opacity: 1;" transform=" translate(-133.0504, -208.445)" d="M 144.45 207.78 l -0.16 0.32 l -0.87 1.23 l -1.35 1.75 c -1.51 1.97 -3.82 4.28 -5.71 5.72 c -0.18 0.18 -0.4 0.28 -0.61 0.39 c -0.11 0.04 -0.21 0.07 -0.31 0.07 c -0.24 0 -0.4 -0.18 -0.38 -0.42 c 0.03 -0.49 0.36 -1.23 1.07 -2.56 c 1.14 -2.11 2.27 -3.62 3.58 -4.7 c 1.38 -1.12 2.97 -1.86 4.14 -1.86 C 144.04 207.71 144.18 207.71 144.45 207.78 L 144.45 207.78 z M 118.84 209.39 c -2.72 3.23 -4.01 4.53 -6 6 c -2.6 1.86 -5.2 2.81 -7.77 2.81 c -3.67 0 -6.22 -2.21 -6.01 -5.19 c 0.28 -4.11 4.38 -6.88 10.27 -6.88 c 3.49 0 5.29 0.77 5.79 2.53 l -0.72 -0.04 h -1.54 c -0.24 0 -0.72 -0.04 -1.47 -0.04 c -0.75 -0.03 -1.4 -0.03 -1.98 -0.03 c -1.75 0 -3.43 0.11 -4.51 0.28 c -1.32 0.25 -2.23 1.02 -2.29 1.93 c -0.13 1.86 1.87 3.16 4.82 3.16 c 2.5 0 4.75 -0.77 6.42 -2.21 c 0.73 -0.6 1.1 -1.09 1.87 -2.32 H 118.84 L 118.84 209.39 z M 114.93 209.39 l -1.23 -0.04 l -1.57 -0.04 c -0.51 -0.04 -0.85 -0.04 -1.13 -0.04 h -0.93 c -5.38 0 -6.67 0.28 -6.75 1.51 c -0.09 1.26 0.81 1.72 3.27 1.72 C 111.73 212.52 112.83 212.09 114.93 209.39 L 114.93 209.39 z M 129.92 199.71 c -0.04 0.56 -0.3 1.37 -0.87 2.63 c -0.69 1.61 -1.55 3.09 -3.66 6.39 h -4.35 c 1.85 -1.93 2.59 -2.81 3.57 -4 c 1.24 -1.61 2.12 -2.91 4.43 -6.67 C 129.72 198.69 129.96 199.14 129.92 199.71 L 129.92 199.71 z M 131.13 209.53 l 0.05 -0.74 h -3.32 c 1.92 -3.05 2.51 -4.07 2.93 -5.26 c 0.17 -0.53 0.28 -1.12 0.33 -1.79 c 0.21 -3.02 -1.66 -5.3 -4.4 -5.3 c -0.31 0 -0.69 0.04 -1.14 0.07 l -0.04 0.56 c 0.41 0 0.58 -0.04 0.79 -0.04 c 0.72 0 0.99 0.11 2.15 0.63 l -0.43 0.7 l -1.85 2.46 l -1.4 1.93 c -0.91 1.26 -2.44 3.02 -4.1 4.74 c -0.26 0.25 -0.66 0.67 -1.18 1.19 l -3.66 -0.07 c -0.25 -0.91 -0.43 -1.26 -0.77 -1.72 c -0.41 -0.49 -0.93 -0.91 -1.49 -1.19 c -1.1 -0.49 -2.48 -0.77 -4.09 -0.77 c -6.1 0 -11.21 4.04 -11.56 9.13 c -0.24 3.47 2.37 6.39 5.69 6.39 c 2.06 0 4.49 -0.95 7.46 -2.91 c 3.02 -2 4.95 -3.69 9.19 -8.07 l 4.55 0.07 c -1.08 1.75 -1.43 2.39 -1.99 3.54 c -0.47 0.91 -0.74 1.75 -0.78 2.42 c -0.1 1.51 0.86 2.95 1.96 2.95 c 0.75 0 1.71 -0.46 2.66 -1.26 c 0.93 -0.81 1.57 -1.48 2.32 -2.5 c -0.17 0.56 -0.29 1.09 -0.32 1.49 c -0.07 0.98 0.41 1.93 1.12 2.21 c 0.13 0.07 0.23 0.11 0.3 0.11 c 0.55 0 1.55 -0.67 2.58 -1.68 c 0.28 -0.28 0.53 -0.54 0.78 -0.81 c -0.01 0.1 -0.02 0.19 -0.03 0.28 c -0.08 1.19 0.41 2 1.27 2 c 0.69 0 1.64 -0.46 2.69 -1.3 c 1.81 -1.44 2.77 -2.42 5.13 -5.37 l -0.09 0.32 l -0.04 0.04 l -0.16 0.32 l -0.62 1.02 c -0.7 1.19 -1.32 2.7 -1.36 3.37 c -0.07 0.95 0.53 1.75 1.25 1.75 c 0.51 0 1.14 -0.25 1.69 -0.7 c 2.86 -2.36 5.26 -6.05 8.21 -8.74 c 0.26 -0.25 0.47 -0.42 0.62 -0.53 c 0.54 -0.39 1.18 -0.74 1.42 -0.74 c 0.17 0 0.23 0.11 0.22 0.32 c -0.01 0.11 -0.05 0.28 -0.14 0.49 c -0.6 1.26 -1.08 2.18 -1.42 2.67 c -0.15 0.21 -0.23 0.35 -0.27 0.42 l -3.62 6.32 h 2.12 c 2.64 -3.93 3.73 -5.33 5.83 -7.55 c 0.52 -0.6 1.07 -1.09 1.65 -1.58 c 0.62 -0.49 1.29 -0.84 1.6 -0.84 c 0.21 0 0.33 0.14 0.32 0.35 c -0.01 0.11 -0.09 0.28 -0.17 0.42 l -1.19 2.42 l -3.59 6.77 h 2.09 c 1.11 -1.75 1.57 -2.46 2.55 -3.65 c 1.32 -1.68 2.84 -3.37 4.26 -4.7 c 1.13 -1.05 2.17 -1.72 2.62 -1.72 c 0.21 0 0.33 0.14 0.32 0.35 c -0.02 0.32 -0.22 0.77 -1.11 2.18 l -0.77 1.3 l -0.92 1.47 c -0.89 1.51 -1.34 2.53 -1.4 3.4 c -0.07 1.05 0.43 1.75 1.25 1.75 c 0.55 0 1.19 -0.32 1.81 -0.88 c 0.98 -0.84 1.47 -1.47 2.59 -3.26 l -0.56 -0.28 c -1.29 1.79 -1.66 2.21 -2.29 2.91 c -0.15 0.14 -0.29 0.28 -0.44 0.39 c -0.25 0.18 -0.5 0.28 -0.67 0.28 c -0.24 0 -0.33 -0.14 -0.32 -0.35 c 0.01 -0.21 0.1 -0.46 0.41 -0.95 l 3.11 -5.33 c 0.58 -0.98 0.79 -1.58 0.84 -2.25 c 0.07 -0.98 -0.47 -1.65 -1.43 -1.65 c -0.58 0 -1.32 0.32 -2.05 0.84 c -1.45 1.09 -2.18 1.79 -4.63 4.49 l 0.12 -0.28 c 0.16 -0.39 0.32 -0.74 0.45 -1.05 c 0.52 -1.12 0.65 -1.4 0.74 -1.79 c 0.09 -0.28 0.1 -0.53 0.12 -0.81 c 0.07 -0.95 -0.28 -1.44 -1.1 -1.44 c -1.44 0 -3.28 1.3 -5.76 4.07 l -0.07 0.07 l -0.78 0.81 c 1 -2.04 1.25 -2.7 1.3 -3.47 c 0.07 -0.98 -0.38 -1.51 -1.27 -1.51 c -0.58 0 -1.15 0.21 -1.61 0.53 c -0.61 0.42 -1.23 0.98 -1.93 1.65 c -2.4 2.51 -5.11 5.95 -7.33 7.93 c -0.42 0.37 -0.58 0.46 -0.75 0.46 c -0.14 0 -0.26 -0.14 -0.25 -0.28 c 0.01 -0.11 0.01 -0.21 0.1 -0.39 c 0.08 -0.21 0.12 -0.32 0.13 -0.35 l 4.78 -9.16 l -1.51 0.07 c -0.56 -0.28 -1.1 -0.39 -1.82 -0.39 c -1.37 0 -3.19 0.56 -4.52 1.4 c -2.24 1.44 -4.18 3.72 -5.1 5.84 c -0.05 0.07 -0.1 0.13 -0.14 0.19 c -0.83 1.05 -1.61 1.93 -2.41 2.6 c -0.33 0.32 -0.68 0.49 -0.92 0.49 c -0.24 0 -0.36 -0.21 -0.33 -0.63 c 0.04 -0.53 0.29 -1.16 1.2 -3.05 c 0.24 -0.46 0.59 -1.16 1.04 -2.11 c 0.61 -1.33 1.08 -2.32 1.37 -2.95 c 0.96 -2.04 1.78 -4 2.46 -5.83 c 0.29 -0.77 0.47 -1.4 0.5 -1.75 c 0.06 -0.81 -0.19 -1.75 -0.82 -3.02 l -0.46 0.25 c 0.17 0.46 0.2 0.63 0.17 1.02 c -0.06 0.81 -0.29 1.65 -0.72 2.53 l -1.84 3.79 l -2.71 5.79 l -0.23 0.31 c -2.38 3.65 -4.69 5.93 -5.99 5.93 c -0.48 0 -0.67 -0.21 -0.63 -0.74 c 0.06 -0.88 0.9 -2.67 2.33 -5.02 l 1.5 -2.42 L 131.13 209.53 z" stroke-linecap="round"/>
</g>
		<g transform="matrix(1 0 0 1 62.8312 91.59)">
<path style="stroke: none; stroke-width: 1; stroke-dasharray: none; stroke-linecap: butt; stroke-dashoffset: 0; stroke-linejoin: miter; stroke-miterlimit: 4; is-custom-font: none; font-file-url: none; fill: rgb(23,25,35); fill-rule: evenodd; opacity: 1;" transform=" translate(-212.8312, -207.705)" d="M 249.28 207.24 l -0.15 0.3 l -0.82 1.16 l -1.28 1.66 c -1.42 1.86 -3.61 4.04 -5.39 5.4 c -0.17 0.17 -0.37 0.27 -0.58 0.36 c -0.1 0.03 -0.2 0.07 -0.3 0.07 c -0.23 0 -0.38 -0.17 -0.36 -0.4 c 0.03 -0.46 0.34 -1.16 1.01 -2.42 c 1.08 -1.99 2.14 -3.41 3.38 -4.44 c 1.3 -1.06 2.81 -1.76 3.91 -1.76 C 248.9 207.18 249.03 207.18 249.28 207.24 L 249.28 207.24 z M 199.14 211.76 c -0.28 4.07 -5.41 6.84 -12.53 6.84 c -6.92 0 -11.87 -2.74 -11.62 -6.39 c 0.28 -4 5.22 -6.63 12.35 -6.63 c 3.36 0 5.2 0.67 6.08 2.21 c 0.15 0.28 0.3 0.56 0.45 0.91 l -10.09 1.79 c -2.5 0.42 -3.67 1.05 -3.74 2 c -0.1 1.4 1.66 2.25 4.68 2.25 c 3.49 0 6.44 -1.02 8.22 -2.91 c 0.63 -0.67 0.94 -1.16 1.47 -2.42 c 1.56 -0.28 2.15 -0.39 3.15 -0.49 l 0.93 -0.14 C 199.08 210.11 199.21 210.71 199.14 211.76 L 199.14 211.76 z M 217.56 206.84 h -2.06 c -1.61 2.53 -2.33 3.51 -3.89 5.23 c -1.33 1.4 -3.24 3.26 -4.22 4.04 c -0.94 0.74 -1.37 1.02 -1.58 1.02 c -0.14 0 -0.2 -0.07 -0.2 -0.14 c 0 -0.07 0.05 -0.21 0.12 -0.32 l 4.01 -6.91 c 0.19 -0.32 0.33 -0.84 0.37 -1.33 c 0.08 -1.12 -0.49 -1.86 -1.41 -1.86 l -7.88 1.06 l -0.15 -0.35 l -1.16 -2.6 l -0.86 -1.9 c -1.39 -3.12 -1.53 -3.58 -1.46 -4.6 c 0.12 -1.68 1.44 -2.95 3.05 -2.95 c 1.61 0 2.34 0.84 2.23 2.49 c -0.02 0.32 -0.15 1.16 -0.27 1.97 l -0.22 1.26 l 0.64 0.14 c 0.17 -0.49 0.3 -0.84 0.38 -1.09 c 0.29 -0.74 0.42 -1.19 0.5 -1.3 c 0.38 -0.98 0.6 -1.72 0.63 -2.18 c 0.08 -1.12 -1.4 -2.04 -3.32 -2.04 c -2.81 0 -5.26 2.32 -5.46 5.12 c -0.08 1.12 0.2 2.11 1.14 4.32 c 0.53 1.19 1 2.35 1.44 3.4 l 0.26 0.7 l -3.63 0.53 c -0.59 -1.9 -1.19 -2.6 -2.68 -3.3 c -1.33 -0.56 -3.16 -0.88 -5.35 -0.88 c -6.99 0 -12.16 3.47 -12.5 8.42 c -0.33 4.81 4 8.14 10.44 8.14 c 8.19 0 16.19 -5.23 16.57 -10.77 c 0.04 -0.6 0.06 -0.81 0.02 -1.79 c 2.44 -0.35 4.86 -0.7 7.31 -1.03 c 0.18 -0.02 0.43 -0.06 0.41 0.22 l 0 0.04 c -0.05 0.25 -0.13 0.46 -0.29 0.7 l -0.47 0.81 l -3.19 5.58 c -0.35 0.6 -0.48 1.02 -0.52 1.51 c -0.07 0.98 0.37 1.61 1.09 1.61 c 0.55 0 1.29 -0.35 2.38 -1.16 c 1.41 -1.09 2.18 -1.82 4.18 -3.97 c 0.37 -0.39 0.44 -0.49 0.78 -0.81 l -0.43 0.7 l -1.41 2.53 c -0.2 0.35 -0.33 0.77 -0.36 1.19 c -0.07 0.95 0.57 1.61 1.53 1.61 c 0.45 0 0.81 -0.17 1.49 -0.7 c 1.2 -0.94 1.55 -1.21 2.64 -2.49 l 0.79 -0.93 c -0.17 0.49 -0.26 0.9 -0.28 1.27 c -0.08 1.09 0.61 2.04 1.44 2.04 c 0.55 0 1.26 -0.32 1.95 -0.88 c 0.88 -0.69 1.44 -1.25 2.42 -2.44 c -0.04 0.22 -0.07 0.43 -0.08 0.64 c -0.13 1.83 0.96 2.84 2.73 2.58 c 0.52 -0.08 1.08 -0.24 1.65 -0.53 c 1.83 -0.92 3.88 -3.31 5.22 -4.84 c 1.95 -2.22 3.36 -4.29 3.99 -4.29 c 0.27 0 0.34 0.11 0.32 0.39 c -0.03 0.39 -0.44 1.15 -0.94 2.18 l -0.83 1.72 l -2.78 5.54 h 2.15 c 0.31 -0.52 2.28 -4.77 2.53 -5.16 c 0.91 -1.46 1.44 -2.31 2.22 -3.04 c 0.28 -0.26 0.69 -0.5 0.89 -0.5 c 0.21 0 0.33 0.18 0.31 0.46 c -0.01 0.11 -0.06 0.35 -0.18 0.56 l 0.53 0.25 l 0.43 -0.7 c 0.5 -0.85 0.75 -1.41 0.77 -1.8 c 0.04 -0.56 -0.31 -0.98 -0.75 -0.98 c -0.58 0 -1.16 0.46 -2.17 1.65 c -0.19 0.25 -0.52 0.63 -0.97 1.16 c 0.13 -0.46 0.2 -0.85 0.21 -1.13 c 0.06 -0.91 -0.47 -1.58 -1.26 -1.58 c -0.21 0 -0.44 0.03 -0.67 0.1 c -0.69 0.22 -2.48 2.53 -4.36 4.71 c -1.18 1.37 -3.19 3.72 -4.91 4.44 c -0.39 0.21 -1.09 0.42 -1.43 0.42 c -0.69 0 -1.03 -0.49 -0.97 -1.4 c 0.04 -0.63 0.14 -0.98 0.45 -1.61 l 1.73 -0.74 c 3.43 -1.51 5.5 -3.26 5.61 -4.81 c 0.07 -1.02 -0.76 -1.83 -1.9 -1.83 c -1.47 0 -3.11 0.95 -4.68 2.74 c -1.1 1.24 -1.94 2.58 -2.44 3.87 l -0.01 0 c -1.72 2.04 -2.19 2.49 -3.17 3.3 c -0.22 0.18 -0.43 0.32 -0.65 0.42 c -0.14 0.07 -0.38 0.11 -0.52 0.11 c -0.24 0 -0.34 -0.11 -0.32 -0.35 c 0.02 -0.25 0.43 -1.23 1.11 -2.63 l 3.15 -6.39 l 1.72 -0.04 l 0.19 -0.74 h -1.58 c 0.4 -0.92 0.81 -1.84 1.21 -2.76 c 0.32 -1.78 0.29 -3.02 -0.14 -4.2 l -3.17 6.96 l -1.86 0.06 l -0.22 0.7 l 1.72 -0.03 l -2.54 5.14 l -1.96 2.24 c -0.69 0.78 -1.14 1.16 -1.29 1.3 c -0.47 0.43 -0.95 0.84 -1.42 1.19 c -0.29 0.25 -0.5 0.35 -0.68 0.35 c -0.17 0 -0.27 -0.11 -0.25 -0.28 c 0 -0.07 0.05 -0.18 0.09 -0.25 l 1.16 -2.46 c 0.4 -0.81 0.71 -1.4 1.22 -2.32 c 0.43 -0.77 0.94 -1.65 1.55 -2.63 L 217.56 206.84 L 217.56 206.84 z M 193.64 209.48 l -9.02 1.58 c -2.32 0.42 -3.73 0.98 -3.77 1.54 c -0.05 0.74 1.45 1.26 3.51 1.26 c 1.78 0 3.72 -0.32 5.27 -0.91 c 0.81 -0.32 1.63 -0.77 2.36 -1.4 C 192.61 211.02 192.95 210.57 193.64 209.48 L 193.64 209.48 z M 230.94 207.07 c -0.04 0.63 -0.58 1.44 -1.46 2.28 c -1.28 1.19 -2.18 1.75 -4.47 2.77 c 1.27 -3.02 3.68 -5.69 5.15 -5.69 C 230.65 206.44 230.97 206.72 230.94 207.07 L 230.94 207.07 z M 251.27 213.14 l -0.52 -0.4 c -1.48 1.82 -1.8 2.19 -2.87 3.18 c -0.41 0.33 -0.55 0.43 -0.71 0.43 c -0.13 0 -0.25 -0.13 -0.24 -0.27 c 0.01 -0.1 0.01 -0.2 0.09 -0.36 c 0.08 -0.2 0.12 -0.3 0.12 -0.33 l 4.51 -8.65 l -1.43 0.07 c -0.53 -0.27 -1.04 -0.36 -1.72 -0.36 c -1.29 0 -3.01 0.53 -4.27 1.33 c -2.84 1.82 -5.17 5.07 -5.34 7.49 c -0.08 1.13 0.39 1.89 1.2 1.89 c 0.65 0 1.55 -0.43 2.54 -1.23 c 1.71 -1.36 2.62 -2.29 4.85 -5.07 l -0.09 0.3 l -0.03 0.03 l -0.15 0.3 l -0.58 0.96 c -0.66 1.13 -1.24 2.55 -1.29 3.18 c -0.06 0.89 0.5 1.66 1.18 1.66 c 0.49 0 1.08 -0.23 1.6 -0.66 C 249.01 215.89 249.43 215.43 251.27 213.14 z" stroke-linecap="round"/>
</g>
</g>
</g>
</svg>